<?xml version="1.0" standalone="no"?>
<!DOCTYPE svg PUBLIC "-//W3C//DTD SVG 20010904//EN"
 "http://www.w3.org/TR/2001/REC-SVG-20010904/DTD/svg10.dtd">
<svg version="1.0" xmlns="http://www.w3.org/2000/svg"
 width="117.000000pt" height="129.000000pt" viewBox="0 0 117.000000 129.000000"
 preserveAspectRatio="xMidYMid meet">

<g transform="translate(0.000000,129.000000) scale(0.100000,-0.100000)"
fill="#000000" stroke="none">
<path d="M0 645 l0 -645 585 0 585 0 0 645 0 645 -585 0 -585 0 0 -645z m634
601 c44 -18 64 -49 72 -108 l7 -48 58 0 c32 0 61 -5 65 -11 7 -13 44 -401 44
-477 0 -43 -5 -57 -25 -78 -24 -24 -27 -24 -171 -22 -180 4 -179 3 -144 112
19 63 21 78 10 91 -22 27 -47 36 -73 26 -13 -5 -47 -16 -75 -24 -47 -14 -53
-14 -72 1 -21 17 -21 18 -5 191 9 96 18 178 21 183 3 4 32 8 65 8 l59 0 0 33
c0 48 30 100 70 119 42 22 51 22 94 4z m-124 -573 c0 -35 -72 -234 -83 -230
-7 1 -22 23 -33 48 -17 33 -35 51 -75 74 -29 17 -52 35 -52 40 1 10 195 83
226 84 10 1 17 -6 17 -16z m-230 -178 c-7 -8 -17 -15 -23 -15 -5 0 -2 9 8 20
21 23 35 19 15 -5z m10 -50 c-24 -25 -46 -42 -49 -40 -3 3 15 25 39 50 24 25
46 42 49 40 3 -3 -15 -25 -39 -50z m60 2 c0 -2 -12 -14 -27 -28 l-28 -24 24
28 c23 25 31 32 31 24z m584 -184 c-21 -38 -44 -79 -51 -93 -15 -29 -63 -39
-63 -12 0 19 49 72 67 72 7 0 27 23 44 50 45 73 47 61 3 -17z m-561 -42 c-27
-50 -49 -85 -51 -76 -3 14 88 178 95 171 2 -1 -18 -44 -44 -95z m-263 5 c-18
-53 -18 -57 -3 -51 13 4 11 -1 -6 -19 -14 -14 -26 -24 -29 -21 -6 6 14 82 34
130 25 58 28 29 4 -39z m69 19 c-10 -30 -19 -63 -19 -74 0 -10 -6 -24 -14 -30
-12 -10 -14 -6 -12 27 2 21 10 50 19 63 8 13 18 34 22 47 3 12 10 22 15 22 5
0 0 -25 -11 -55z m91 47 c0 -4 -13 -23 -30 -42 l-30 -35 23 42 c20 39 37 55
37 35z m308 -3 c-10 -5 -18 -17 -18 -26 0 -14 -2 -15 -12 -4 -11 10 -9 15 6
27 11 8 25 14 30 14 6 0 3 -5 -6 -11z m60 -1 c7 -7 12 -20 12 -29 0 -18 -36
-49 -55 -49 -5 0 -2 5 7 11 30 17 40 46 22 63 -8 9 -12 16 -7 16 5 0 14 -5 21
-12z m-63 -75 c-39 -70 -55 -93 -55 -79 0 16 74 146 83 146 5 0 -8 -30 -28
-67z m395 47 c0 -5 -5 -10 -11 -10 -5 0 -7 5 -4 10 3 6 8 10 11 10 2 0 4 -4 4
-10z m-494 -62 c-14 -53 -23 -68 -42 -68 -16 0 -19 26 -4 35 6 3 7 -1 4 -9 -3
-9 -2 -16 4 -16 12 0 22 24 22 54 0 17 16 46 25 46 1 0 -3 -19 -9 -42z m-206
18 c0 -8 -4 -17 -9 -21 -6 -3 -9 4 -8 15 1 23 17 28 17 6z m70 6 c0 -5 -10
-17 -21 -28 l-22 -19 13 25 c11 23 11 24 -4 9 -10 -9 -18 -29 -20 -44 -4 -36
-26 -46 -26 -12 0 27 41 77 65 77 8 0 15 -4 15 -8z m60 -11 c0 -11 -12 -33
-26 -48 l-26 -28 15 30 c9 17 18 38 21 48 7 23 16 22 16 -2z m250 -1 c-12 -12
-25 -32 -30 -45 -11 -30 -30 -34 -23 -5 6 21 50 70 64 70 5 0 0 -9 -11 -20z
m104 -2 l-6 -21 27 21 c39 31 53 27 16 -4 -17 -14 -30 -33 -29 -42 2 -8 -3
-17 -11 -20 -11 -3 -12 2 -7 23 5 19 4 25 -5 19 -9 -5 -10 -2 -6 9 3 9 2 19
-3 22 -6 4 -10 0 -10 -7 0 -7 -14 -29 -30 -48 -35 -40 -29 -12 6 35 28 37 69
46 58 13z m175 -26 c-21 -41 -45 -60 -32 -24 8 23 44 74 49 70 2 -2 -6 -23
-17 -46z m66 31 c-12 -61 -16 -73 -26 -73 -6 0 -6 6 1 19 5 11 10 31 10 45 0
14 4 26 9 26 5 0 8 -8 6 -17z m75 -3 c-13 -24 -25 -27 -16 -3 6 15 5 15 -13
-1 -21 -19 -34 -56 -19 -56 5 0 6 -4 3 -10 -11 -18 -25 -10 -25 14 0 27 42 76
65 76 13 0 14 -4 5 -20z m-845 -26 c-9 -17 -11 -30 -5 -32 13 -5 3 -22 -12
-22 -7 0 -8 13 -5 36 l6 36 -22 -18 -22 -19 19 22 c10 13 22 20 27 18 4 -3 11
0 14 6 15 23 15 0 0 -27z m441 -6 c-8 -18 -20 -34 -26 -36 -7 -3 -11 -1 -8 4
2 5 10 21 18 37 19 38 32 34 16 -5z m137 -9 c-9 -18 -18 -28 -21 -21 -4 13 26
67 34 59 2 -2 -3 -19 -13 -38z m144 -24 c0 -8 -4 -12 -9 -9 -5 3 -6 10 -3 15
9 13 12 11 12 -6z"/>
<path d="M535 1195 c-18 -18 -25 -35 -25 -65 l0 -40 80 0 80 0 0 40 c0 51 -34
90 -80 90 -19 0 -40 -9 -55 -25z"/>
<path d="M376 1038 c-8 -39 -29 -299 -24 -304 3 -2 31 5 63 16 70 24 108 25
140 4 39 -25 47 -74 24 -141 -30 -87 -35 -83 106 -83 114 0 127 2 146 21 17
17 20 29 15 62 -3 23 -12 128 -21 232 -9 105 -18 196 -20 203 -3 7 -22 12 -49
12 -41 0 -45 -2 -48 -27 -2 -17 -10 -29 -20 -31 -14 -3 -18 3 -18 27 l0 31
-80 0 -80 0 0 -31 c0 -24 -4 -30 -17 -27 -11 2 -19 14 -21 31 -3 25 -7 27 -47
27 -38 0 -45 -3 -49 -22z"/>
<path d="M855 194 c-12 -19 -14 -29 -6 -37 8 -8 11 -7 11 5 0 8 7 21 15 28 8
7 15 16 15 21 0 17 -18 9 -35 -17z"/>
</g>
</svg>
